<?xml version="1.0" encoding="utf-8"?>
<!-- Generator: Adobe Illustrator 27.0.0, SVG Export Plug-In . SVG Version: 6.00 Build 0)  -->
<svg version="1.1" id="Layer_1" xmlns="http://www.w3.org/2000/svg" xmlns:xlink="http://www.w3.org/1999/xlink" x="0px" y="0px"
	 viewBox="0 0 60 60" style="enable-background:new 0 0 60 60;" xml:space="preserve">
<style type="text/css">
	.st0{fill:#0A5D00;}
	.st1{fill:#0C0F0B;}
</style>
<path class="st0" d="M27.9,3.7v13.2c-2.2,1.7-3.6,4.3-3.6,7.2v5.5c0,4.3,3,7.9,7.1,8.8v0.5c0,0.5-0.4,0.9-0.9,0.9h-6.4
	c-0.7-1.3-2.1-2.1-3.6-2.1h-2.1c-2.2,0-4.1,1.8-4.1,4.1c0,2.2,1.8,4.1,4.1,4.1h2.1c1.5,0,2.8-0.8,3.6-2.1h6.4c2.7,0,4.8-2.2,4.8-4.8
	v-0.5c4.1-0.9,7.1-4.6,7.1-8.8v-5.5c0-2.8-1.3-5.5-3.6-7.2V3.8c3.9,0.8,7.5,2.8,10.2,5.6c2.9,3.2,4.4,7.3,4.4,12.1s-3.9,12.7-7,18.8
	c-0.5,1-1,1.9-1.5,2.9c-0.6,1.1-0.7,2.5-0.3,3.7l3.3,9.3c0.4,1.1-0.2,2.3-1.3,2.7c-0.2,0-0.5,0.1-0.7,0.1h-20l-2-5.6
	c-0.5-1.5-1.9-2.5-3.5-2.6l-7.7-0.4c-0.5,0-1-0.4-1.2-0.9l-1.2-4.3l0,0c0.4-0.5,0.8-1.1,1.2-1.6c0.2-0.3,0.3-0.6,0.3-1
	c0-0.3-0.2-0.7-0.5-0.9c-0.1-0.1-0.3-0.2-0.5-0.3l-1.1-0.3c0,0-0.1-0.1-0.1-0.2l0,0l0,0v-3.2c0-0.4-0.1-0.8-0.4-1l-2.7-2.2
	c-0.2-0.1-0.2-0.4,0-0.5l5.9-8c0.2-0.3,0.3-0.7,0.2-1c-1.2-5.8,0-11,3.4-14.9c2.8-3.2,6.9-5.4,11.7-6.4 M28.9,2.5
	c-5.2,0.8-10.1,3.1-13.4,6.9c-3.6,4.1-5,9.5-3.7,15.8v0.2l-5.9,8c-0.4,0.6-0.3,1.4,0.2,1.9l2.7,2.2c0,0,0.1,0.1,0.1,0.2v3.2
	c0,0.6,0.2,1.1,0.7,1.3l1.2,0.3c0,0,0,0,0.1,0c0.1,0.1,0.1,0.3,0,0.4c-0.5,0.5-0.9,1.1-1.3,1.7c-0.1,0.2-0.2,0.5,0,0.8l1.2,4.3
	c0.2,1,1.1,1.6,2.1,1.7l7.7,0.4c1.2,0,2.2,0.8,2.6,1.9l2.2,6.2h20.7l0,0c0.4,0,0.7,0,1-0.2c1.6-0.6,2.5-2.3,1.9-3.9l-3.3-9.3
	c-0.3-1-0.3-2,0.2-2.9s1-1.9,1.5-2.9c3.1-6.1,7.1-13.9,7.1-19.2s-1.8-9.7-4.7-12.8c-3.2-3.3-7.4-5.5-11.9-6.1v14.9
	c2.2,1.5,3.6,4,3.6,6.7v5.5c0,4.1-3,7.5-7.1,8V39c0,2.1-1.7,3.8-3.8,3.8h-7.1c-0.4,1.3-1.6,2.1-2.9,2.1h-2.1c-1.7,0-3.1-1.4-3.1-3.1
	c0-1.7,1.4-3.1,3.1-3.1h2.1c1.3,0,2.5,0.9,2.9,2.1h7.1c1.1,0,1.9-0.9,1.9-1.9v-1.3c-4-0.5-7.1-3.9-7.1-8v-5.5c0-2.7,1.3-5.2,3.6-6.7
	V2.5l0,0H28.9z"/>
<path class="st1" d="M35.9,16.5L35.9,16.5V0.7c0-0.4-0.3-0.7-0.7-0.7h-3.6c-0.4,0-0.7,0.3-0.7,0.7v15.8c0.8-0.3,1.7-0.4,2.5-0.4
	S35.1,16.2,35.9,16.5z M31.9,1H35v14.3c-0.5,0-1-0.1-1.5-0.1s-1,0-1.5,0.1V1H31.9z M20.5,40.7h-2.1c-0.6,0-1.1,0.5-1.1,1.2
	c0,0.6,0.5,1.1,1.1,1.1h2.1c0.6,0,1.1-0.5,1.1-1.1l0,0c0-0.6-0.5-1.1-1.1-1.1V40.7z M20.7,41.9c0,0,0,0.1-0.1,0.1h-2
	c0,0-0.1,0-0.1-0.1c0,0,0,0,0-0.1l0,0h2.1C20.6,41.8,20.7,41.8,20.7,41.9L20.7,41.9z M33.4,18c-3.4,0-6.1,2.7-6.1,6.1v5.5
	c0,3.4,2.8,6,6.1,6s0,0,0,0c3.3,0,6-2.7,6-6v-5.5C39.4,20.7,36.7,18,33.4,18L33.4,18z M33.4,34.7L33.4,34.7c-2.8,0-5.1-2.3-5.1-5
	v-5.5c0-2.8,2.3-5.1,5.1-5.1s5.1,2.3,5.1,5.1v5.5C38.5,32.5,36.2,34.7,33.4,34.7L33.4,34.7z M37.6,29.7c0,2.1-1.8,3.8-3.8,3.8
	S33,33.2,33,32.7s0.3-0.8,0.8-0.8c1.3,0,2.3-1.1,2.3-2.3s0.3-0.8,0.8-0.8S37.7,29.1,37.6,29.7L37.6,29.7z M33.1,21.6
	c-1.3,0-2.3,1.1-2.3,2.3s-0.3,0.8-0.8,0.8s-0.8-0.3-0.8-0.8c0-2.1,1.8-3.8,3.8-3.8s0.8,0.3,0.8,0.8S33.5,21.7,33.1,21.6L33.1,21.6z"
	/>
</svg>
