<?xml version="1.0" encoding="utf-8"?>
<!-- Generator: Adobe Illustrator 27.0.0, SVG Export Plug-In . SVG Version: 6.00 Build 0)  -->
<svg version="1.1" id="Layer_1" xmlns="http://www.w3.org/2000/svg" xmlns:xlink="http://www.w3.org/1999/xlink" x="0px" y="0px"
	 viewBox="0 0 60 60" style="enable-background:new 0 0 60 60;" xml:space="preserve">
<style type="text/css">
	.st0{fill:#0C0F0B;}
	.st1{fill:#0A5D00;}
</style>
<path class="st0" d="M30.9,16.5V0.7c0-0.4,0.3-0.7,0.7-0.7h3.6c0.4,0,0.7,0.3,0.7,0.7v15.8l0,0C34.3,16,32.5,16,30.9,16.5L30.9,16.5
	L30.9,16.5z M18.5,40.7c-0.6,0-1.1,0.5-1.1,1.2s0.5,1.1,1.1,1.1h2.1c0.6,0,1.1-0.5,1.1-1.1l0,0c0-0.6-0.5-1.1-1.1-1.1h-2.1V40.7z
	 M27.3,24.2c0-3.4,2.7-6.1,6.1-6.1s6.1,2.7,6.1,6.1v5.5c0,3.3-2.7,6-6,6s-6.1-2.7-6.2-6C27.3,29.7,27.3,24.2,27.3,24.2z M33.4,32.6
	c-0.5,0-1,0.4-1,1s0.4,1,1,1c2.7,0,4.9-2.2,4.9-4.9s-0.4-1-1-1s-1,0.4-1,1C36.3,31.3,35,32.6,33.4,32.6z M28.5,24.2
	c0,0.5,0.5,0.9,1,0.9s0.9-0.5,0.9-1c0-1.6,1.3-2.9,2.9-2.9c1.6,0,0.9-0.4,0.9-0.9s-0.4-1-0.9-1c-2.7,0-4.9,2.2-4.9,4.9H28.5z"/>
<path class="st1" d="M49.1,54.5L46,45.6c-0.2-0.6-0.2-1.2,0-1.8c3.2-6.3,8.1-15,8.3-21.2v-1.1c0-5.5-1.8-9.7-4.7-12.8
	c-3.2-3.3-7.4-5.5-11.9-6.1v14.9c2.2,1.5,3.6,4,3.6,6.7v5.5c0,4.1-3,7.5-7.1,8V39c0,2.1-1.7,3.8-3.8,3.8h-7.1
	c-0.4,1.3-1.6,2.1-2.9,2.1h-2.1c-1.7,0-3.1-1.4-3.1-3.1s1.4-3.1,3.1-3.1h2.1c1.3,0,2.5,0.9,2.9,2.1h7.1c1.1,0,1.9-0.9,1.9-1.9v-1.3
	c-4-0.5-7.1-3.9-7.1-8v-5.5c0-2.7,1.3-5.2,3.6-6.7V2.5c-5.2,0.8-10.1,3.1-13.4,6.9c-1.5,1.7-2.6,3.7-3.3,5.8
	c-1.1,3-1.4,6.5-0.7,10.4L6,32.9c-0.2,0.3-0.3,0.6-0.4,0.9c0,0.3,0,0.5,0,0.8c0,0.7,0.4,1.3,0.9,1.7l2.2,1.8v2.6
	c0,1,0.5,1.9,1.4,2.3c-0.6,0.6-0.9,1.5-0.7,2.4l1.1,4c0,0.4,0.3,0.7,0.5,1c0,0,0.2,0.2,0.2,0.3c0.6,0.7,1.4,1.1,2.4,1.1l7.3,0.3
	c0.6,0,1.2,0.4,1.4,1l2.2,6.1c0.1,0.4,0.4,0.6,0.8,0.6H46c0.4,0,0.7,0,1-0.2c1.2-0.4,1.9-1.4,2-2.6c0.3-0.9,0.4-1.8,0-2.8L49.1,54.5
	L49.1,54.5z"/>
</svg>
