<?xml version="1.0" encoding="utf-8"?>
<!-- Generator: Adobe Illustrator 27.0.0, SVG Export Plug-In . SVG Version: 6.00 Build 0)  -->
<svg version="1.1" id="Layer_1" xmlns="http://www.w3.org/2000/svg" xmlns:xlink="http://www.w3.org/1999/xlink" x="0px" y="0px"
	 viewBox="0 0 60 60" style="enable-background:new 0 0 60 60;" xml:space="preserve">
<style type="text/css">
	.st0{fill:#0A5D00;}
</style>
<path class="st0" d="M49.7,30c0,4.4-1.4,8.5-4,11.9c-0.4,0.6-0.9,1.1-1.4,1.6c-0.4-0.9-0.6-1.4-0.6-1.4c-0.2-0.3-0.5-0.7-1-1
	c-0.5-0.3-0.9-0.5-1.3-0.7c-1.5-0.8-2.9-1.4-5-2.2c-0.2-0.1-0.5-0.1-0.7-0.3c-0.5-0.2-0.8-0.5-1-0.8l-0.7-0.8h-1
	c0.1-0.8,0.2-1.6,0.2-2.4c0.1,0,0.5,0.1,0.9-0.2c0.3-0.3,0.5-0.7,0.3-1.2c0.6,0,2.5-0.2,4.2-1.6c1.6-1.3,2.1-2.9,2.3-3.5
	c0.2-1,0-1.6-0.2-2c-0.4-0.5-1-0.6-2-0.1c-0.6,0.3-1.2,0.7-1.9,1.1c-0.8,0.3-1.6,0.5-2.3,0.7c0-1-0.1-2.5-0.7-4.2
	c-0.5-1.5-1.1-2.5-1.7-3.2c-0.4,0.2-1.3,0.6-2.6,0.6c-1.3,0-2.2-0.5-2.6-0.7c-0.6,0.6-1.5,1.7-2.1,3.4c-0.5,1.5-0.5,2.8-0.5,3.6
	c-0.7-0.3-1.4-0.7-2.1-1.2c-0.9-0.6-1.7-1.3-2.5-1.7c-0.3-0.1-1.2-0.2-2,0.5c-0.7,0.7-0.9,1.8-0.4,2.8c0.5,0.8,1.3,2.1,2.7,3.3
	c1.2,1,2.4,1.5,3.3,1.8c0,0.1,0,0.8,0.5,1.3c0.4,0.4,0.9,0.5,1.1,0.6c0,0.5,0.1,1.2,0.2,1.9c0.1,0.5,0.2,0.9,0.4,1.3
	c-0.3,0-1.2,0-2.1,0.7c-0.6,0.4-0.8,1-1,1.3c-0.4,0.4-0.9,0.9-1.6,1.3c-0.9,0.6-1.8,0.9-2.4,1.1c-0.4,0.1-1.1,0.3-1.8,0.9
	c-0.3,0.3-0.6,0.5-0.8,0.8c-0.6-0.6-1.1-1.3-1.6-2c-2.4-3.3-3.6-7.2-3.6-11.4c0-10.8,8.8-19.5,19.6-19.5
	C40.9,10.4,49.7,19.2,49.7,30z M60.1,30.1c0,16.3-13.2,29.5-29.5,29.5c-4.8,0-9.3-1.1-13.3-3.2c-9,4.5-17.2,2.6-17.2,2.6
	c4.8-2.8,5.8-8.8,5.7-13c-3-4.6-4.7-10.1-4.7-16c0-6.6,2.2-12.7,5.8-17.6c5.2-7.3,13.8-12,23.5-12c5.2,0,10,1.3,14.3,3.7
	C53.9,9.2,60.1,18.9,60.1,30.1z M50.5,30c0-11.3-9.1-20.4-20.4-20.4C18.8,9.6,9.7,18.7,9.7,30c0,4.4,1.4,8.5,3.8,11.9
	c2,2.9,4.8,5.2,8,6.7c2.6,1.2,5.6,1.9,8.7,1.9c4,0,7.7-1.1,10.8-3.1c2.1-1.3,3.9-3,5.4-4.9C49,39,50.5,34.7,50.5,30z"/>
</svg>
