<?xml version="1.0" encoding="utf-8"?>
<!-- Generator: Adobe Illustrator 27.0.0, SVG Export Plug-In . SVG Version: 6.00 Build 0)  -->
<svg version="1.1" id="Layer_1" xmlns="http://www.w3.org/2000/svg" xmlns:xlink="http://www.w3.org/1999/xlink" x="0px" y="0px"
	 viewBox="0 0 40 40" style="enable-background:new 0 0 40 40;" xml:space="preserve">
<style type="text/css">
	.st0{fill:#FFFFFF;}
</style>
<path class="st0" d="M29.4,17.9c-0.7,0-1.3-0.6-1.3-1.3s-0.6-1.9-1.7-3c-1-1.1-2.1-1.7-3.1-1.7S22,11.3,22,10.6s0.6-1.3,1.3-1.3
	c1.7,0,3.4,0.9,4.9,2.5c1.4,1.5,2.4,3.4,2.4,4.8s-0.6,1.3-1.3,1.3H29.4z"/>
<path class="st0" d="M35.4,17.9c-0.7,0-1.3-0.6-1.3-1.3c0-5.9-4.8-10.7-10.7-10.7s-1.3-0.6-1.3-1.3s0.6-1.3,1.3-1.3
	c7.3,0,13.3,6,13.3,13.3S36.1,17.9,35.4,17.9z"/>
<path class="st0" d="M19.6,23.7l-5.5,5.5c-0.6-0.5-1.2-1.1-1.8-1.7C10.6,25.8,9,24,7.6,22.1s-2.5-3.8-3.3-5.7S3.1,12.7,3.1,11
	s0.2-2.2,0.6-3.2s1-1.9,1.9-2.8c1.1-1,2.2-1.6,3.5-1.6s0.9,0,1.4,0.3c0.4,0.2,0.8,0.5,1.1,0.9l3.9,5.5c0.3,0.4,0.5,0.8,0.7,1.2
	s0.2,0.7,0.2,1s-0.1,0.8-0.4,1.2c-0.2,0.4-0.5,0.8-0.9,1.2L13.8,16c-0.2,0.2-0.3,0.4-0.3,0.7s0,0.2,0,0.4c0,0.1,0.1,0.2,0.1,0.3
	c0.3,0.6,0.8,1.3,1.6,2.1c0.8,0.9,1.6,1.8,2.4,2.6c0.6,0.6,1.2,1.1,1.8,1.6L19.6,23.7z M36.6,30.5c0,0.5,0,1-0.2,1.4
	c0,0.1,0,0.3-0.2,0.4c-0.3,0.6-0.7,1.2-1.1,1.7c-0.8,0.9-1.7,1.5-2.7,2l0,0c-1,0.4-2,0.6-3.2,0.6c-1.7,0-3.5-0.4-5.4-1.2
	s-3.8-1.9-5.7-3.3c-0.6-0.5-1.3-1-1.9-1.5l5.5-5.4c0.5,0.4,0.9,0.6,1.2,0.8c0,0,0.2,0,0.3,0.1c0.1,0,0.3,0,0.4,0
	c0.3,0,0.5-0.1,0.7-0.3l1.3-1.2c0.4-0.4,0.8-0.7,1.2-0.9c0.4-0.2,0.8-0.4,1.2-0.4s0.7,0,1,0.2s0.8,0.4,1.2,0.6l5.5,3.9
	c0.4,0.3,0.7,0.6,0.9,1.1c0.2,0.4,0.3,0.8,0.3,1.3L36.6,30.5z"/>
</svg>
