<?xml version="1.0" encoding="utf-8"?>
<!-- Generator: Adobe Illustrator 27.0.0, SVG Export Plug-In . SVG Version: 6.00 Build 0)  -->
<svg version="1.1" id="Layer_1" xmlns="http://www.w3.org/2000/svg" xmlns:xlink="http://www.w3.org/1999/xlink" x="0px" y="0px"
	 viewBox="0 0 269.6 30" style="enable-background:new 0 0 269.6 30;" xml:space="preserve">
<style type="text/css">
	.st0{fill:#0C0F0B;}
	.st1{fill:#0A5D00;}
</style>
<path id="Black_00000165919030524616742740000000625039273743773104_" class="st0" d="M15,30c-4,0-7.7-1.6-10.6-4.4
	C1.6,22.7,0,19,0,15S1.6,7.3,4.4,4.4C7.3,1.6,11.1,0,15,0c2.7,0,5.3,0.7,7.3,2l0.4,0.3l-2.9,4.4l-0.4-0.2c-2-1-3.3-1.1-4.2-1.1
	c-5.4,0-9.8,4.3-9.8,9.6c0,5.2,4.4,9.6,9.6,9.6c3.2,0,6-1.6,8-4.4l0.3-0.4l4.7,2.7l-0.3,0.5C24.7,27.4,20.1,30,15,30z M86.8,15
	c0-3.9-1.6-7.7-4.4-10.5C79.5,1.6,75.8,0,71.8,0c-8.1,0-15,6.9-15,15c0,8.1,6.9,15,15,15S86.8,23.1,86.8,15z M81.4,15
	c0,5.2-4.4,9.6-9.6,9.6c-5.3,0-9.6-4.3-9.6-9.6c0-5.2,4.4-9.6,9.6-9.6C77,5.4,81.4,9.8,81.4,15z M95.2,29.5v-8.8h8.5
	c7.1,0,10.7-3.4,10.7-10.2c0-6.7-3.6-10.1-10.7-10.1H89.8v29H95.2z M95.2,15.3V5.9h9c3.4,0,4.9,1.5,4.9,4.7c0,3.2-1.6,4.7-4.9,4.7
	H95.2z M153.8,22.9l0.3-0.5l-4.7-2.7l-0.3,0.4c-2,2.9-4.9,4.4-8,4.4c-5.2,0-9.6-4.4-9.6-9.6c0-5.3,4.4-9.6,9.7-9.6
	c0.9,0,2.3,0.1,4.2,1.1l0.4,0.2l2.9-4.4L148.5,2c-1.9-1.3-4.6-2-7.3-2c-4,0-7.7,1.6-10.6,4.4c-2.9,2.9-4.4,6.6-4.4,10.6
	s1.6,7.7,4.4,10.6c2.9,2.9,6.6,4.4,10.6,4.4C146.3,30,150.9,27.4,153.8,22.9z M185.9,15c0-3.9-1.6-7.7-4.4-10.5
	c-2.9-2.9-6.6-4.4-10.6-4.4c-8.1,0-15,6.9-15,15c0,8.1,6.9,15,15,15C179,30,185.9,23.1,185.9,15z M180.5,15c0,5.2-4.4,9.6-9.6,9.6
	c-5.3,0-9.6-4.3-9.6-9.6c0-5.2,4.4-9.6,9.6-9.6C176.1,5.4,180.5,9.8,180.5,15z M242.3,22.9l0.3-0.5l-4.7-2.7l-0.3,0.4
	c-2,2.9-4.9,4.4-8,4.4c-5.2,0-9.6-4.4-9.6-9.6c0-5.3,4.4-9.6,9.7-9.6c0.9,0,2.3,0.1,4.2,1.1l0.4,0.2l2.9-4.4L237,2
	c-1.9-1.3-4.6-2-7.3-2c-4,0-7.7,1.6-10.6,4.4c-2.9,2.9-4.4,6.6-4.4,10.6s1.6,7.7,4.4,10.6c2.9,2.9,6.6,4.4,10.6,4.4
	C234.8,30,239.4,27.4,242.3,22.9z M269.6,29.5v-29h-5.4v14.8h-13.8V0.5H245v29h5.4v-8.8h13.8v8.8H269.6z M207,13.8
	c0.2-0.9,1.5-1.7,2.3-2.5c1.1-1.1,2.2-2.1,3.2-3.2c1.4-1.4,2.7-2.8,4-4.1c0,0,0,0-0.1,0c-8.9,6.8-17.9,13.6-26.7,20.5
	c-0.7,0.6-1.9,1.9-2.3,2.8c-0.5,1.2-0.1,2.2,1.2,2.3c0.6,0,1.4-0.1,1.9-0.4c1-0.6,1.9-1.3,2.7-2.1c3.2-3.1,6.3-6.2,9.5-9.3
	c0.3-0.2,0.5-0.5,0.9-0.8c1,2.3,4.5,8.5,6.8,12.9h5c-2.1-4-6.1-11-7-13.1C207.8,15.9,206.9,14.6,207,13.8z M48.2,22.7
	c0.4-0.2,0.7-0.4,1.1-0.6c3.7-2.2,5.7-5.4,5.9-9.6c0.2-6.7-4.9-11.9-11.9-11.9c-3.9,0-9.3,0-13.1,0v4.6c3.8,0,9,0,12.7,0
	c1.2,0,2.6,0.3,3.7,0.8c2.8,1.3,4.3,4.4,3.8,7.4c-0.6,3.1-3.1,5.3-6.6,5.6c-1.2,0.1-2.1,0.4-2.6,1.6c-0.4,1.2,0.1,2,0.9,2.8
	c2.1,2,4.2,4.1,6.3,6.1h6.8C52.9,27.2,50.6,25,48.2,22.7z"/>
<path id="Green_00000065762747347054400770000005212807875909731770_" class="st1" d="M205.5,10.9c-1.2,0.9-2.4,1.7-3.6,2.6
	c-0.9-1.9-1.7-3.7-2.7-5.7c-0.3,0.6-0.5,1.1-0.7,1.5c-1.1,2.7-2.2,5.4-3.3,8.1c-0.3,0.6-0.7,1.2-1.3,1.6c-1.8,1.4-3.7,2.7-5.7,3.9
	c0.7-1.8,1.4-3.5,2.2-5.3c2.2-5.3,4.3-10.6,6.5-15.9c0.4-1,1-1.7,2.1-1.8c1.2-0.1,1.8,0.6,2.3,1.6C202.7,4.7,204.1,7.8,205.5,10.9z
	 M42.4,9.3h-9.6c-1.5,0-2.7,1.2-2.7,2.7v2.5v0.2v14.8h5.4V14.7h6.9c1.5,0,2.7-1.2,2.7-2.7v0C45.1,10.5,43.9,9.3,42.4,9.3z"/>
</svg>
