<?xml version="1.0" encoding="utf-8"?>
<!-- Generator: Adobe Illustrator 27.0.0, SVG Export Plug-In . SVG Version: 6.00 Build 0)  -->
<svg version="1.1" id="Logo" xmlns="http://www.w3.org/2000/svg" xmlns:xlink="http://www.w3.org/1999/xlink" x="0px" y="0px"
	 viewBox="0 0 1094.5 754.8" style="enable-background:new 0 0 1094.5 754.8;" xml:space="preserve">
<style type="text/css">
	.st0{fill:#0A5D00;}
	.st1{fill:#0C0F0B;}
</style>
<path id="Green" class="st0" d="M1094.5,754.8H0v-4h1094.5V754.8z M1094.5,565.6H0v4h1094.5V565.6z M817.3,408.6
	c-2.6-5-10-12.2-18.8-17.9c-9.1-5.8-15.5-9.2-24.2-12.9c-27-13.8-51.8-25.7-90.2-39.6c-3.8-1-8.4-2.6-13.4-5.3
	c-8.3-4.5-13.9-10.1-17.4-14.1l-13.4-14.4h-18.4c1.4-14.3,2.7-28.7,4.1-43.1c1.2,0.2,9.5,1.9,16.3-3.6c5.9-4.8,8.4-13.1,6.2-21
	c11.5-0.6,45.4-4,76.8-30c28.3-23.4,38.7-52,42.1-63.3c4.4-19,0.5-29.7-4-35.7c-7.1-9.5-18.8-10.6-36-2.3
	c-10.6,6.1-21.1,13.4-34.8,19.3c-14.5,6.3-29.8,9.9-42.1,13.5c-0.1-18.3-2.4-45.6-13.3-76.4c-9.6-27.4-20.5-45.2-30.8-59.1
	C599.7,7,581.7,13,559.5,13.3c-23.5,0.3-40.3-9.2-46.7-13.3c-10.3,10.8-27,31.4-37.4,61.9c-9.2,27.1-9.6,50.8-8.7,65.2
	c-12.1-6-24.9-12.9-38.3-21c-17.2-10.4-31.1-24.2-45.7-31.3c-4.8-1.8-22-4.3-36.7,9.2c-13.2,12.2-16.6,33.3-7.4,51.3
	c8.3,15.1,23.6,38.5,50,59.9c22.5,18.2,44.5,28,59.7,33.4c0,2.6,0.5,14.1,9.5,23.6c7.4,7.8,16.2,9.7,19.2,10.2
	c0.2,9.6,1.2,21.2,4,34c2,9.2,4.6,17.4,7.3,24.4c-5.3-0.1-22.9,0.1-38.8,12.7c-10.3,8.2-15.3,17.9-17.6,23.2
	c-7,7.4-16.5,16.2-28.9,24.4c-16.5,11-32.2,17.2-43.9,20.8c-7.8,2-20.5,6.4-33.5,16.3c-12.4,9.5-19.8,20-23.9,26.7l-28.5,124.5
	h602.7C847.4,468,817.3,408.6,817.3,408.6z M817.1,606c-1.9-4.1-4.5-6.9-9.3-6.7c-4.6,0.2-6.8,3.1-8.5,7.1
	c-8.7,21.5-17.6,43-26.4,64.4c-2.9,7.2-5.9,14.4-8.8,21.6c8.2-5,15.8-10.2,23.2-15.9c2.2-1.6,4.1-4.1,5.2-6.5
	c4.7-10.9,9-21.9,13.5-32.8c0.8-1.9,1.7-3.7,2.8-6.2c3.8,8.1,7.2,15.5,10.8,23.2c5-3.6,9.7-7,14.7-10.6
	C828.5,630.8,822.7,618.5,817.1,606z M172,637h-38.8c-6.1,0-11,4.9-11,11v10.3v0.7v60.1h21.9V659H172c6.1,0,11-4.9,11-11v0
	C182.9,642,178,637,172,637z"/>
<path id="Black" class="st1" d="M61,721.1c-16.1,0-31.4-6.4-43-18C6.4,691.5,0,676.3,0,660.2s6.4-31.3,18-42.9
	c11.6-11.6,26.9-18,43-18c10.9,0,21.7,2.9,29.5,8l1.8,1.2l-11.9,18l-1.7-0.8c-8-3.9-13.4-4.4-17.2-4.4c-21.8,0-39.6,17.5-39.6,38.9
	c0,21.1,17.8,38.9,38.9,38.9c12.8,0,24.4-6.4,32.6-18l1.1-1.6l18.9,11l-1.3,1.9C100.3,710.7,81.6,721.1,61,721.1z M195.6,691.4
	c1.6-0.9,3-1.7,4.4-2.5c14.8-9,23.2-21.9,23.8-39c0.9-27.2-20-48.2-48.2-48.5c-15.8-0.1-37.6-0.2-53.4-0.2v18.9
	c15.2,0,36.4,0,51.6,0.2c5.1,0,10.5,1.1,15.1,3.1c11.5,5.1,17.6,17.7,15.4,29.9c-2.3,12.6-12.8,21.7-26.7,22.8
	c-4.8,0.4-8.7,1.6-10.4,6.4c-1.7,4.8,0.4,8.3,3.8,11.5c8.5,8.3,16.9,16.7,25.5,24.9h27.5C214.6,709.9,205.2,700.8,195.6,691.4z
	 M352.4,660.1c0-16-6.4-31.2-17.9-42.8c-11.6-11.6-26.8-18-42.9-18c-33,0-60.9,27.9-60.9,60.9c0,33,27.9,60.9,60.9,60.9
	S352.4,693.2,352.4,660.1z M330.5,660.2c0,21.1-17.8,38.9-38.9,38.9c-21.5,0-38.9-17.4-38.9-38.8c0-21.2,17.8-39.1,38.8-39.1
	C312.6,621.3,330.5,639.1,330.5,660.2z M386.5,719.1v-35.7H421c28.9,0,43.5-13.9,43.5-41.3c0-27.1-14.6-40.8-43.5-40.8h-56.4v117.8
	H386.5z M386.5,661.4v-38.2h36.7c13.6,0,20,6,20,19c0,13.1-6.4,19.2-20,19.2H386.5z M624.5,692.5l1.3-1.9l-18.9-11l-1.1,1.6
	c-8.2,11.6-19.8,18-32.6,18c-21.1,0-38.9-17.8-38.9-38.9c0-21.5,17.8-38.9,39.6-38.9c3.8,0,9.3,0.5,17.2,4.4l1.7,0.8l11.9-18
	l-1.8-1.2c-7.8-5.1-18.6-8-29.5-8c-16.1,0-31.4,6.4-43,18c-11.6,11.6-18,26.8-18,42.9s6.4,31.3,18,42.9c11.6,11.6,26.9,18,43,18
	C593.7,721.1,612.4,710.7,624.5,692.5z M754.6,660.1c0-16-6.4-31.2-17.9-42.8c-11.6-11.6-26.8-18-42.9-18c-33,0-60.9,27.9-60.9,60.9
	c0,33,27.9,60.9,60.9,60.9C726.7,721.1,754.6,693.2,754.6,660.1z M732.6,660.2c0,21.1-17.8,38.9-38.9,38.9
	c-21.5,0-38.9-17.4-38.9-38.8c0-21.2,17.8-39.1,38.8-39.1C714.7,621.3,732.6,639.1,732.6,660.2z M840.4,655.3
	c0.7-3.8,5.9-6.9,9.2-10.2c4.3-4.3,8.7-8.5,13-12.8c5.5-5.6,10.9-11.3,16.1-16.7c0,0-0.1-0.1-0.3,0c-36.2,27.7-72.5,55.3-108.6,83.3
	c-2.9,2.4-7.7,7.6-9.3,11.2c-2.1,4.9-0.5,8.8,4.8,9.2c2.3,0.2,5.7-0.4,7.7-1.6c4.1-2.4,7.6-5.1,11-8.4c13-12.4,25.7-25.1,38.5-37.6
	c1-1,2.1-1.9,3.5-3.1c4.2,9.3,18.1,34.4,27.8,52.5H874c-8.7-16.4-24.7-44.8-28.5-53.1C843.5,663.8,839.7,658.7,840.4,655.3z
	 M983.8,692.5l1.3-1.9l-18.9-11l-1.1,1.6c-8.2,11.6-19.8,18-32.6,18c-21.1,0-38.9-17.8-38.9-38.9c0-21.5,17.8-38.9,39.6-38.9
	c3.8,0,9.3,0.5,17.2,4.4l1.7,0.8l11.9-18l-1.8-1.2c-7.8-5.1-18.6-8-29.5-8c-16.1,0-31.4,6.4-43,18c-11.6,11.6-18,26.8-18,42.9
	s6.4,31.3,18,42.9c11.6,11.6,26.9,18,43,18C953,721.1,971.7,710.7,983.8,692.5z M1094.5,719.1V601.3h-21.9v60.2h-55.9v-60.2h-22.1
	v117.8h22.1v-35.7h55.9v35.7H1094.5z"/>
</svg>
