<?xml version="1.0" encoding="utf-8"?>
<!-- Generator: Adobe Illustrator 27.0.0, SVG Export Plug-In . SVG Version: 6.00 Build 0)  -->
<svg version="1.1" id="Layer_1" xmlns="http://www.w3.org/2000/svg" xmlns:xlink="http://www.w3.org/1999/xlink" x="0px" y="0px"
	 viewBox="0 0 40 40" style="enable-background:new 0 0 40 40;" xml:space="preserve">
<style type="text/css">
	.st0{fill:#0A5D00;}
</style>
<path class="st0" d="M26.2,23.4c2.3,0,4.1-1.9,4.1-4.1V5.5c0-2.3-1.9-4.1-4.1-4.1H4.1C1.9,1.4,0,3.2,0,5.5v22.1
	c0,0.6,0.3,1.1,0.9,1.3C1.4,29.1,2,29,2.4,28.6l4.7-4.7c0.3-0.3,0.6-0.4,1-0.4L26.2,23.4L26.2,23.4z M17.9,15.2c0,0.4-0.1,0.7-0.4,1
	c-0.3,0.3-0.6,0.4-1,0.4H6.9c-0.8,0-1.4-0.6-1.4-1.4c0-0.8,0.6-1.4,1.4-1.4h9.7c0.4,0,0.7,0.1,1,0.4C17.8,14.5,17.9,14.8,17.9,15.2
	L17.9,15.2z M24.8,9.7c0,0.4-0.1,0.7-0.4,1c-0.3,0.3-0.6,0.4-1,0.4H6.9c-0.8,0-1.4-0.6-1.4-1.4c0-0.8,0.6-1.4,1.4-1.4h16.6
	c0.4,0,0.7,0.1,1,0.4C24.7,8.9,24.8,9.3,24.8,9.7L24.8,9.7z M40,16.6L40,16.6l0,22.1c0,0.6-0.3,1.1-0.9,1.3
	c-0.5,0.2-1.1,0.1-1.5-0.3l-4.7-4.7v0c-0.3-0.3-0.6-0.4-1-0.4H13.8c-2.3,0-4.1-1.9-4.1-4.1v-4.1h13.8c0,0.4,0.1,0.7,0.4,1
	c0.3,0.3,0.6,0.4,1,0.4h9.7c0.8,0,1.4-0.6,1.4-1.4c0-0.8-0.6-1.4-1.4-1.4h-4.2c1-0.7,1.7-1.7,2.2-2.8h1.6c0.8,0,1.4-0.6,1.4-1.4
	c0-0.8-0.6-1.4-1.4-1.4h-1v-6.9h2.8C38.1,12.4,40,14.3,40,16.6z"/>
</svg>
