<?xml version="1.0" encoding="utf-8"?>
<!-- Generator: Adobe Illustrator 27.0.0, SVG Export Plug-In . SVG Version: 6.00 Build 0)  -->
<svg version="1.1" id="Layer_1" xmlns="http://www.w3.org/2000/svg" xmlns:xlink="http://www.w3.org/1999/xlink" x="0px" y="0px"
	 viewBox="0 0 40 40" style="enable-background:new 0 0 40 40;" xml:space="preserve">
<style type="text/css">
	.st0{fill:#FFFFFF;}
</style>
<path class="st0" d="M7.6,37.6h2.1C9.7,38.3,9,39,8.3,39H0l2.8-5.5L0,27.9h4.8v6.9C4.8,36.4,6.1,37.6,7.6,37.6z M40,27.9h-4.8v6.9
	c0,1.5-1.2,2.8-2.8,2.8h-2.1c0,0.8,0.6,1.4,1.4,1.4H40l-2.8-5.5L40,27.9z M6.9,22.9h4.4c-1.4-1.9-2.2-4.2-2.2-6.6
	c0-6,4.9-10.9,10.9-10.9s10.9,4.9,10.9,10.9c0,2.4-0.8,4.7-2.2,6.6h4.4c0.2,0,0.5,0,0.7,0.1c1-2.1,1.5-4.3,1.5-6.6
	C35.3,7.9,28.4,1,20,1S4.7,7.9,4.7,16.4c0,2.3,0.5,4.6,1.5,6.6C6.4,22.9,6.6,22.9,6.9,22.9z M7.6,25.2c-0.8,0-1.4,0.6-1.4,1.4v8.3
	c0,0.8,0.6,1.4,1.4,1.4h24.8c0.8,0,1.4-0.6,1.4-1.4v-8.3c0-0.8-0.6-1.4-1.4-1.4H7.6z M26.2,18.9c-0.1-0.1-0.3-0.3-0.5-0.5
	c-0.2-0.1-0.4-0.2-0.6-0.3c-0.7-0.4-1.3-0.7-2.3-1c-0.1,0-0.2-0.1-0.3-0.1c-0.2-0.1-0.4-0.3-0.4-0.4l-0.3-0.4h-0.5
	c0-0.4,0.1-0.7,0.1-1.1c0,0,0.2,0,0.4-0.1c0.2-0.1,0.2-0.3,0.2-0.5c0.3,0,1.2-0.1,2-0.8c0.7-0.6,1-1.3,1.1-1.6
	c0.1-0.5,0-0.8-0.1-0.9c-0.2-0.2-0.5-0.3-0.9-0.1c-0.3,0.2-0.5,0.3-0.9,0.5c-0.4,0.2-0.8,0.3-1.1,0.3c0-0.5-0.1-1.2-0.3-2
	c-0.2-0.7-0.5-1.2-0.8-1.5c-0.2,0.1-0.6,0.3-1.2,0.3c-0.6,0-1-0.2-1.2-0.3c-0.3,0.3-0.7,0.8-1,1.6c-0.2,0.7-0.2,1.3-0.2,1.7
	c-0.3-0.2-0.6-0.3-1-0.5c-0.4-0.3-0.8-0.6-1.2-0.8c-0.1,0-0.6-0.1-0.9,0.2c-0.3,0.3-0.4,0.8-0.2,1.3c0.2,0.4,0.6,1,1.3,1.5
	c0.6,0.5,1.1,0.7,1.5,0.9c0,0.1,0,0.4,0.2,0.6c0.2,0.2,0.4,0.2,0.5,0.3c0,0.2,0,0.5,0.1,0.9c0.1,0.2,0.1,0.4,0.2,0.6
	c-0.1,0-0.6,0-1,0.3c-0.3,0.2-0.4,0.5-0.4,0.6c-0.2,0.2-0.4,0.4-0.7,0.6c-0.4,0.3-0.8,0.4-1.1,0.5c-0.2,0.1-0.5,0.2-0.9,0.4
	c-0.3,0.2-0.5,0.5-0.6,0.7L12.3,23h15.4C27,20.4,26.2,18.9,26.2,18.9z"/>
</svg>
