<?xml version="1.0" encoding="utf-8"?>
<!-- Generator: Adobe Illustrator 27.0.0, SVG Export Plug-In . SVG Version: 6.00 Build 0)  -->
<svg version="1.1" id="Layer_1" xmlns="http://www.w3.org/2000/svg" xmlns:xlink="http://www.w3.org/1999/xlink" x="0px" y="0px"
	 viewBox="0 0 40 40" style="enable-background:new 0 0 40 40;" xml:space="preserve">
<style type="text/css">
	.st0{fill:#FFFFFF;}
</style>
<path class="st0" d="M10,21.7c-4.6,0-8.3,3.7-8.3,8.3s3.7,8.3,8.3,8.3s8.3-3.7,8.3-8.3S14.6,21.7,10,21.7z M6.6,26.6H10
	c0.6,0,1.1,0.5,1.1,1.1s-0.5,1.1-1.1,1.1H6.6c-0.6,0-1.1-0.5-1.1-1.1S6,26.6,6.6,26.6z M13.4,33.4H6.6c-0.6,0-1.1-0.5-1.1-1.1
	s0.5-1.1,1.1-1.1h6.8c0.6,0,1.1,0.5,1.1,1.1C14.5,32.9,14,33.4,13.4,33.4z"/>
<path class="st0" d="M28.4,4.8L28.3,5H11.7c-5,0-8.3,2.5-8.3,8.3v5.2c0,1.2,1.3,2,2.4,1.5c1.8-0.8,3.9-1.1,6.1-0.8
	c4.4,0.7,7.9,4.2,8.8,8.5c0.2,1.3,0.3,2.5,0.1,3.7c-0.1,1,0.7,1.8,1.6,1.8h6c5,0,8.3-2.5,8.3-8.3V13.2C36.7,7.3,33.4,4.8,28.4,4.8z
	 M29.2,14.3L24,18.5c-1.1,0.9-2.5,1.3-3.9,1.3H20c-1.4,0-2.8-0.4-3.9-1.3l-5.2-4.2c-0.5-0.4-0.6-1.2-0.2-1.8
	c0.4-0.5,1.2-0.6,1.8-0.2l5.2,4.2c1.3,1,3.4,1,4.7,0l5.2-4.2c0.5-0.4,1.3-0.3,1.8,0.2C29.8,13,29.7,13.8,29.2,14.3z"/>
</svg>
