<?xml version="1.0" encoding="utf-8"?>
<!-- Generator: Adobe Illustrator 27.0.0, SVG Export Plug-In . SVG Version: 6.00 Build 0)  -->
<svg version="1.1" id="Layer_1" xmlns="http://www.w3.org/2000/svg" xmlns:xlink="http://www.w3.org/1999/xlink" x="0px" y="0px"
	 viewBox="0 0 60 60" style="enable-background:new 0 0 60 60;" xml:space="preserve">
<style type="text/css">
	.st0{fill:#0A5D00;}
	.st1{fill:#0C0F0B;}
</style>
<rect x="8.5" y="13.1" class="st0" width="4.8" height="4.8"/>
<rect x="17.3" y="14.1" class="st0" width="10.4" height="2.7"/>
<rect x="8.5" y="26.7" class="st0" width="4.8" height="4.8"/>
<rect x="8.5" y="40.2" class="st0" width="4.8" height="4.8"/>
<rect x="17.3" y="41.3" class="st0" width="10.3" height="2.7"/>
<path class="st0" d="M30.8,55.4H2.9V2.7h28.2v12.8c0,0.8,0.6,1.4,1.4,1.4h11.2V22c0.4-0.2,0.9-0.2,1.4-0.2s0.9,0,1.4,0.2v-6.4
	c0-0.3-0.1-0.7-0.3-0.9L33.5,0.5c-0.3-0.3-0.6-0.5-1-0.5H1.6C0.8,0,0.2,0.6,0.2,1.4v55.4c0,0.8,0.6,1.4,1.4,1.4h32.1
	c-1-0.8-2-1.7-2.9-2.7L30.8,55.4z M33.8,5l8.2,9.2h-8.2V5z"/>
<path class="st0" d="M30.7,27.7H17.4v2.7h10.5c0.4-1.3,1.5-2.4,2.9-2.7H30.7z"/>
<path class="st1" d="M58.6,30.3c-6.8,0-12.4-5.4-12.4-5.5c-0.5-0.5-1.4-0.5-1.9,0c0,0-5.6,5.4-12.4,5.5c-1.7,0-1.4,0.6-1.4,1.4v15.1
	c0,8.8,9.8,12.7,14.6,13.3c0,0,0.1,0,0.2,0s0.1,0,0.2,0c4.8-0.5,14.6-4.5,14.6-13.3V31.7C60.1,30.9,59.5,30.3,58.6,30.3L58.6,30.3z
	 M57.3,46.7c0,6.8-8.1,10-12,10.5c-3.9-0.5-12-3.7-12-10.5V33c5.6-0.5,10.1-3.8,12-5.4c1.9,1.6,6.4,4.9,12,5.4V46.7z"/>
<path class="st1" d="M39.4,40l-2.1,1.8l6.2,7.3c0.3,0.3,0.6,0.5,1,0.5l0,0c0.4,0,0.8-0.2,1.1-0.5l8.8-11.4L52.2,36l-7.7,10
	C44.5,46,39.4,40,39.4,40z"/>
</svg>
