<?xml version="1.0" encoding="utf-8"?>
<!-- Generator: Adobe Illustrator 27.0.0, SVG Export Plug-In . SVG Version: 6.00 Build 0)  -->
<svg version="1.1" id="Layer_1" xmlns="http://www.w3.org/2000/svg" xmlns:xlink="http://www.w3.org/1999/xlink" x="0px" y="0px"
	 viewBox="0 0 60 60" style="enable-background:new 0 0 60 60;" xml:space="preserve">
<style type="text/css">
	.st0{fill:#0A5D00;}
	.st1{fill:#0C0F0B;}
</style>
<path class="st0" d="M46.1,14.6L33.5,0.5c-0.3-0.3-0.6-0.5-1-0.5H1.6C0.8,0,0.2,0.6,0.2,1.4v55.5c0,0.8,0.6,1.4,1.4,1.4H39
	c-4.2-2-8.5-5.7-8.5-11.4V31.8c0-0.8,0.6-1.4,1.4-1.4c6.8,0,12.4-5.4,12.4-5.5c0.5-0.5,1.4-0.5,1.9,0c0,0,0,0,0.2,0.2v-9.5
	c0-0.3-0.1-0.7-0.3-0.9L46.1,14.6z M33.8,4.9l8.2,9.2h-8.2V4.9z M27.7,14.1v2.7H17.3v-2.7C17.3,14.1,27.7,14.1,27.7,14.1z
	 M13.4,26.7v4.8H8.6v-4.8H13.4z M8.5,17.9v-4.8h4.8v4.8H8.5z M13.4,40.2V45H8.6v-4.8H13.4z M27.6,44H17.3v-2.7h10.3
	C27.6,41.3,27.6,44,27.6,44z M27.8,30.4H17.3v-2.7h13.3c-1.4,0.3-2.5,1.4-2.9,2.7H27.8z"/>
<path class="st1" d="M45.3,27.6c-1.9,1.6-6.4,4.9-12,5.4v13.8c0,6.8,8.1,10,12,10.5c3.9-0.5,12-3.7,12-10.5V33
	C51.7,32.5,47.2,29.2,45.3,27.6z M45.6,49.1c-0.3,0.3-0.6,0.5-1.1,0.5l0,0c-0.4,0-0.8-0.2-1-0.5l-6.2-7.3l2.1-1.8l5.1,6l7.7-10
	l2.2,1.7L45.6,49.1z"/>
</svg>
