<?xml version="1.0" encoding="utf-8"?>
<!-- Generator: Adobe Illustrator 27.0.0, SVG Export Plug-In . SVG Version: 6.00 Build 0)  -->
<svg version="1.1" id="Layer_1" xmlns="http://www.w3.org/2000/svg" xmlns:xlink="http://www.w3.org/1999/xlink" x="0px" y="0px"
	 viewBox="0 0 48 41" style="enable-background:new 0 0 48 41;" xml:space="preserve">
<style type="text/css">
	.st0{fill:#0A5D00;}
</style>
<path class="st0" d="M36.8,40.1c-2.9,0-5.6-1.1-8-3.2l0,0c-2.4-2.2-3.6-5.6-3.6-10.1s0.6-7.3,1.9-10.5c1.3-3.3,3.1-6.2,5.3-8.7
	c2.2-2.6,4.7-4.7,7.3-6.3L40.2,1l5.9,3L45,4.9c-0.8,0.7-1.8,1.8-2.9,3.3c-1.1,1.5-2.2,3.2-3.1,5.2c-0.7,1.7-1.2,3.5-1.4,5.4
	c2.5,0.3,4.7,1.3,6.6,2.9c2.2,1.9,3.3,4.3,3.3,7.3s-1.1,6.1-3.2,8.1C42.2,39.1,39.7,40,36.8,40.1L36.8,40.1z M40.2,2
	c-2.6,1.6-5,3.7-7.1,6.2c-2.1,2.4-3.8,5.3-5.1,8.4c-1.2,3.1-1.8,6.6-1.8,10.2s1.1,7.4,3.3,9.3l0,0c2.2,2,4.7,3,7.4,3
	s4.8-0.9,6.8-2.7c1.9-1.8,2.9-4.3,2.9-7.4s-1-4.9-3-6.6c-1.8-1.6-4-2.5-6.5-2.7h-0.5v-0.5c0.2-2.2,0.7-4.3,1.5-6.2
	c0.9-2.1,2-3.9,3.2-5.4s2.2-2.7,3.1-3.5L40.3,2L40.2,2z M12.4,40.1c-3,0-5.7-1.1-8.1-3.2c-2.4-2.2-3.7-5.5-3.7-10.1
	s0.6-7.3,1.9-10.5l0,0c1.3-3.3,3.1-6.2,5.3-8.7C10,5,12.6,2.9,15.3,1.3L15.8,1l5.9,3l-1.1,0.9c-0.8,0.7-1.8,1.8-2.9,3.3
	s-2.2,3.2-3.2,5.2c-0.8,1.7-1.3,3.5-1.5,5.4c2.6,0.3,4.8,1.3,6.6,2.9c2.1,1.9,3.2,4.3,3.2,7.3s-1.1,6.1-3.1,8.1c-2.1,2-4.5,3-7.4,3
	H12.4z M15.8,2c-2.6,1.6-5.1,3.7-7.2,6.2c-2.1,2.4-3.8,5.3-5.1,8.4l0,0c-1.2,3.1-1.8,6.6-1.8,10.2s1.1,7.4,3.3,9.3
	c2.2,2,4.7,3,7.5,3s4.8-0.9,6.7-2.7c1.9-1.8,2.8-4.3,2.8-7.4s-1-4.9-2.9-6.6c-1.8-1.6-4-2.5-6.6-2.7H12v-0.5
	c0.2-2.2,0.7-4.3,1.6-6.2c1-2.1,2.1-3.9,3.3-5.4c1.2-1.5,2.2-2.7,3.1-3.5L15.8,2L15.8,2z"/>
</svg>
