<?xml version="1.0" encoding="utf-8"?>
<!-- Generator: Adobe Illustrator 27.0.0, SVG Export Plug-In . SVG Version: 6.00 Build 0)  -->
<svg version="1.1" id="Layer_1" xmlns="http://www.w3.org/2000/svg" xmlns:xlink="http://www.w3.org/1999/xlink" x="0px" y="0px"
	 viewBox="0 0 40 40" style="enable-background:new 0 0 40 40;" xml:space="preserve">
<style type="text/css">
	.st0{fill:#FFFFFF;}
</style>
<path class="st0" d="M9.1,15c3.2,0,5.8-2.6,5.8-5.8s-2.6-5.8-5.8-5.8S3.3,6,3.3,9.2S5.9,15,9.1,15z M28.3,25h5
	c1.8,0,3.3,1.5,3.3,3.3v5c0,1.8-1.5,3.3-3.3,3.3h-5c-1.8,0-3.3-1.5-3.3-3.3v-5C25,26.5,26.5,25,28.3,25z M20,32.9h-4.5
	c-1.9,0-3.6-1.2-4.3-3s-0.2-3.8,1.3-5.1l13.3-11.7c0.8-0.7,0.8-1.7,0.6-2.3c-0.2-0.6-0.9-1.4-2-1.4h-4.5c-0.7,0-1.2-0.6-1.2-1.2
	S19.3,7,19.9,7h4.5c1.9,0,3.6,1.2,4.3,3s0.2,3.8-1.3,5.1L14.1,26.7c-0.8,0.7-0.8,1.6-0.6,2.3c0.2,0.6,0.9,1.3,1.9,1.3h4.5
	c0.7,0,1.2,0.6,1.2,1.2s-0.6,1.2-1.2,1.2L20,32.9z"/>
<path class="st0" d="M30.9,32.5c-0.9,0-1.7-0.8-1.7-1.7s0.7-1.7,1.7-1.7l0,0c0.9,0,1.7,0.8,1.7,1.7S31.8,32.5,30.9,32.5z"/>
<path class="st0" d="M9.2,10.8c-0.9,0-1.7-0.8-1.7-1.7s0.7-1.7,1.7-1.7l0,0c0.9,0,1.7,0.8,1.7,1.7S10.1,10.8,9.2,10.8z"/>
</svg>
