<?xml version="1.0" encoding="utf-8"?>
<!-- Generator: Adobe Illustrator 27.0.0, SVG Export Plug-In . SVG Version: 6.00 Build 0)  -->
<svg version="1.1" id="Layer_1" xmlns="http://www.w3.org/2000/svg" xmlns:xlink="http://www.w3.org/1999/xlink" x="0px" y="0px"
	 viewBox="0 0 60 60" style="enable-background:new 0 0 60 60;" xml:space="preserve">
<style type="text/css">
	.st0{fill:#0C0F0B;}
	.st1{fill:#0A5D00;}
</style>
<path class="st0" d="M39.8,24c0.6-1.3,0.9-2.7,0.9-4.2c0-2.9-1.2-5.6-3.1-7.5c-1.9-1.9-4.6-3.1-7.5-3.1s-5.6,1.2-7.5,3.1
	s-3.1,4.6-3.1,7.5s1.2,5.6,3.1,7.5s4.6,3.1,7.5,3.1s1,0,1.5,0s1-0.2,1.4-0.3c0.2,0,0.5,0,0.7,0l4,2l-0.6-3.6c0-0.3,0-0.7,0.3-0.9
	c1-1,1.9-2.2,2.5-3.5L39.8,24z M26.9,14.3h6.3c0.6,0,1,0.5,1,1s-0.5,1-1,1h-6.3c-0.6,0-1-0.4-1-1S26.4,14.3,26.9,14.3z M33.1,25.9
	h-6.3c-0.6,0-1-0.5-1-1s0.5-1,1-1h6.3c0.6,0,1,0.5,1,1S33.6,25.9,33.1,25.9z M36,21.1H23.9c-0.6,0-1-0.5-1-1s0.5-1,1-1H36
	c0.6,0,1,0.5,1,1S36.5,21.1,36,21.1z"/>
<path class="st1" d="M57.9,23.8L57.9,23.8c-1-1-2.3-1.7-3.8-2c-0.3-5.9-2.9-11.2-6.8-15.1c-4.2-4.1-9.9-6.6-16.1-6.6
	s-11.8,2.5-16,6.5c-4,3.9-6.6,9.2-6.9,15.1h-1c-2,0-3.8,0.8-5.1,2.1l0,0C0.8,25.1,0,27,0,29v8.7c0,2,0.8,3.8,2.1,5.1l0,0
	c1.3,1.3,3.1,2.1,5.1,2.1h4c1,0,1.9-0.4,2.6-1.1c0.7-0.7,1.1-1.6,1.1-2.6V25.3c0-1-0.4-1.9-1.1-2.6c-0.7-0.7-1.6-1.1-2.6-1.1h-1
	c0.4-5.3,2.7-10.1,6.3-13.6c3.8-3.7,8.9-5.9,14.6-5.9s10.9,2.3,14.7,6c3.6,3.5,5.9,8.2,6.2,13.5h-3.3c-1,0-1.9,0.4-2.6,1.1
	c-0.7,0.7-1.1,1.6-1.1,2.6v15.9c0,1,0.4,1.9,1.1,2.6l0,0c0.7,0.7,1.6,1.1,2.6,1.1H52v4.3c0,1.1-0.5,2.2-1.2,2.9s-1.8,1.2-2.9,1.2
	h-8.7c-0.2-1.1-0.7-2.1-1.5-2.8c-1-1-2.3-1.6-3.8-1.6h-7.8c-1.5,0-2.9,0.6-3.8,1.6c-1,1-1.6,2.3-1.6,3.8s0.6,2.9,1.6,3.8
	c1,1,2.3,1.6,3.8,1.6h7.8c1.5,0,2.9-0.6,3.8-1.6c0.8-0.8,1.3-1.7,1.5-2.8h8.7c1.7,0,3.2-0.7,4.4-1.8c1.1-1.1,1.8-2.7,1.8-4.4v-4.5
	c1.4-0.3,2.7-1,3.8-2l0,0c1.3-1.3,2.1-3.1,2.1-5.1v-8.7c0-2-0.8-3.8-2.1-5.1l0,0L57.9,23.8z"/>
</svg>
