<?xml version="1.0" encoding="utf-8"?>
<!-- Generator: Adobe Illustrator 27.0.0, SVG Export Plug-In . SVG Version: 6.00 Build 0)  -->
<svg version="1.1" id="Layer_1" xmlns="http://www.w3.org/2000/svg" xmlns:xlink="http://www.w3.org/1999/xlink" x="0px" y="0px"
	 viewBox="0 0 60 60" style="enable-background:new 0 0 60 60;" xml:space="preserve">
<style type="text/css">
	.st0{fill:#0C0F0B;}
	.st1{fill:#0A5D00;}
</style>
<path class="st0" d="M25.8,15.3c0-0.6,0.5-1,1-1h6.3c0.6,0,1,0.5,1,1s-0.5,1-1,1h-6.3C26.2,16.3,25.8,15.8,25.8,15.3z M36,19.1H23.9
	c-0.6,0-1,0.5-1,1s0.5,1,1,1H36c0.6,0,1-0.5,1-1S36.5,19.1,36,19.1z M33.1,23.9h-6.3c-0.6,0-1,0.5-1,1s0.5,1,1,1h6.3
	c0.6,0,1-0.5,1-1S33.6,23.9,33.1,23.9z M41.7,24.8c-0.6,1.4-1.5,2.7-2.6,3.8l0.8,5.1c0,0.6-0.3,1.1-0.8,1.2c-0.2,0-0.4,0-0.6,0
	l-5.4-2.7l0,0c-0.4,0.1-0.9,0.2-1.3,0.3c-0.6,0-1.2,0.1-1.7,0.1c-3.5,0-6.7-1.4-9-3.7s-3.7-5.5-3.7-9s1.4-6.7,3.7-9s5.5-3.7,9-3.7
	s6.7,1.4,9,3.7s3.7,5.5,3.7,9s-0.4,3.5-1,5L41.7,24.8z M40.7,19.8c0-2.9-1.2-5.6-3.1-7.5S33,9.2,30.1,9.2s-5.6,1.2-7.5,3.1
	s-3.1,4.6-3.1,7.5s1.2,5.6,3.1,7.5s4.6,3.1,7.5,3.1s1,0,1.5,0l0,0c0.5,0,1-0.2,1.4-0.3c0.2,0,0.5,0,0.7,0l4,2l-0.6-3.6
	c0-0.3,0-0.7,0.3-0.9c1-1,1.9-2.2,2.5-3.5s0.9-2.7,0.9-4.2L40.7,19.8z"/>
<path class="st1" d="M57.9,23.8L57.9,23.8c-1-1-2.3-1.7-3.8-2c-0.3-5.9-2.9-11.2-6.8-15.1c-4.2-4.1-9.9-6.6-16.1-6.6
	s-11.8,2.5-16,6.5c-4,3.9-6.6,9.2-6.9,15.1h-1c-2,0-3.8,0.8-5.1,2.1l0,0C0.8,25.1,0,27,0,29v8.7c0,2,0.8,3.8,2.1,5.1l0,0
	c1.3,1.3,3.1,2.1,5.1,2.1h4c1,0,1.9-0.4,2.6-1.1c0.7-0.7,1.1-1.6,1.1-2.6V25.3c0-1-0.4-1.9-1.1-2.6c-0.7-0.7-1.6-1.1-2.6-1.1h-1
	c0.4-5.3,2.7-10.1,6.3-13.6c3.8-3.7,8.9-5.9,14.6-5.9s10.9,2.3,14.7,6c3.6,3.5,5.9,8.2,6.2,13.5h-3.3c-1,0-1.9,0.4-2.6,1.1
	c-0.7,0.7-1.1,1.6-1.1,2.6v15.9c0,1,0.4,1.9,1.1,2.6l0,0c0.7,0.7,1.6,1.1,2.6,1.1H52v4.3c0,1.1-0.5,2.2-1.2,2.9s-1.8,1.2-2.9,1.2
	h-8.7c-0.2-1.1-0.7-2.1-1.5-2.8c-1-1-2.3-1.6-3.8-1.6h-7.8c-1.5,0-2.9,0.6-3.8,1.6c-1,1-1.6,2.3-1.6,3.8s0.6,2.9,1.6,3.8
	c1,1,2.3,1.6,3.8,1.6h7.8c1.5,0,2.9-0.6,3.8-1.6c0.8-0.8,1.3-1.7,1.5-2.8h8.7c1.7,0,3.2-0.7,4.4-1.8c1.1-1.1,1.8-2.7,1.8-4.4v-4.5
	c1.4-0.3,2.7-1,3.8-2l0,0c1.3-1.3,2.1-3.1,2.1-5.1v-8.7c0-2-0.8-3.8-2.1-5.1L57.9,23.8z M11.2,23.7L11.2,23.7c0.5,0,0.9,0.2,1.2,0.5
	s0.5,0.7,0.5,1.2v15.9c0,0.5-0.2,0.9-0.5,1.2S11.7,43,11.2,43h-4c-1.4,0-2.8-0.6-3.7-1.5S2,39.2,2,37.8v-8.7c0-1.4,0.6-2.8,1.5-3.7
	c0.9-0.9,2.3-1.5,3.7-1.5h4V23.7z M37.3,54.5c0,0.9-0.4,1.8-1,2.4c-0.6,0.6-1.5,1-2.4,1h-7.8c-0.9,0-1.8-0.4-2.4-1s-1-1.5-1-2.4
	s0.4-1.8,1-2.4c0.6-0.6,1.5-1,2.4-1h7.8c0.9,0,1.8,0.4,2.4,1C36.9,52.7,37.3,53.5,37.3,54.5L37.3,54.5z M58,37.7
	c0,1.4-0.6,2.8-1.5,3.7s-2.3,1.5-3.7,1.5h-4c-0.4,0-0.8-0.2-1.1-0.4l0,0c-0.3-0.3-0.5-0.8-0.5-1.2V25.4c0-0.5,0.2-0.9,0.5-1.2
	c0.3-0.3,0.7-0.5,1.2-0.5h4l0,0c1.4,0,2.8,0.6,3.7,1.5s1.5,2.3,1.5,3.7v8.7L58,37.7z"/>
</svg>
