<?xml version="1.0" encoding="utf-8"?>
<!-- Generator: Adobe Illustrator 27.0.0, SVG Export Plug-In . SVG Version: 6.00 Build 0)  -->
<svg version="1.1" id="Layer_1" xmlns="http://www.w3.org/2000/svg" xmlns:xlink="http://www.w3.org/1999/xlink" x="0px" y="0px"
	 viewBox="0 0 60 65" style="enable-background:new 0 0 60 65;" xml:space="preserve">
<style type="text/css">
	.st0{fill:#0C0F0B;}
	.st1{fill:#0A5D00;}
</style>
<path class="st0" d="M20.2,23.4H32v6.1c0,0.4,0.2,0.8,0.6,1h0.3c0.3,0,0.5-0.1,0.8-0.3l0,0l6.2-6.7c2.7,0,4.9-2.3,4.9-5.1V5.1
	c0-2.8-2.3-5.1-5-5.1H20.2c-2.8,0-5,2.3-5,5.1v13.3l0,0c0,2.8,2.3,5.1,5,5.1l0,0L20.2,23.4z M17.2,18.4V5.1c0-1.7,1.4-3,3-3h19.6
	c0.9,0,1.6,0.3,2.1,0.9s0.9,1.3,0.9,2.2v13.3c0,1.6-1.3,3-3,3h-0.3c-0.3,0-0.5,0.1-0.8,0.3l0,0L33.9,27v-4.4c0-0.5-0.4-1-1-1H20
	c-1.7,0-3-1.4-3-3h0.1L17.2,18.4z M24.1,8.8h1.8c0.2,2,1.1,3.8,2.4,5.2c-1.1,0.5-2.3,0.9-3.4,0.9s-1,0.4-1,1s0.4,1,1,1
	c1.8,0,3.5-0.5,5-1.5c1.5,1,3.2,1.6,5,1.6s1-0.4,1-1s-0.4-1-1-1c-1.2,0-2.4-0.3-3.4-0.9c1.3-1.4,2.1-3.2,2.4-5.2h1.8
	c0.5,0,1-0.4,1-1s-0.4-1-1-1H24c-0.5,0-1,0.4-1,1l0,0c0,0.3,0,0.5,0.3,0.8C23.5,8.9,23.7,9,24.1,9C24.1,9,24.1,8.8,24.1,8.8z
	 M31.9,8.7c-0.2,1.5-0.9,2.8-1.9,3.9c-1.1-1.1-1.7-2.5-1.9-3.9H32L31.9,8.7z"/>
<path class="st1" d="M48.5,36.9c0,0.5-0.4,1-1,1H36.1c-0.5,0-1-0.4-1-1s0.4-1,1-1h11.4C48,35.9,48.5,36.3,48.5,36.9z M47.5,40.6
	H36.1c-0.5,0-1,0.4-1,1s0.4,1,1,1h11.4c0.5,0,1-0.4,1-1S48.1,40.6,47.5,40.6z M24.8,27.6c0-0.2,0-0.5-0.3-0.8
	c-0.2-0.2-0.4-0.3-0.8-0.3H12.3c-0.5,0-1,0.4-1,1s0.4,1,1,1h11.4c0.2,0,0.5,0,0.8-0.3c0.2-0.2,0.3-0.4,0.3-0.8l0,0
	C24.8,27.4,24.8,27.6,24.8,27.6z M47.5,50.1H41c-0.5,0-1,0.4-1,1s0.4,1,1,1h6.5c0.5,0,1-0.4,1-1S48.1,50.1,47.5,50.1z M59.8,28.6
	v31.5c0,2.7-2.1,4.9-4.8,4.9H4.9c-1.3,0-2.5-0.5-3.4-1.4s-1.4-2.2-1.4-3.5H0V28.6c0-2.7,2.1-4.9,4.8-4.9h0.8v-1.9
	c0-0.3,0.1-0.5,0.3-0.8c0.2-0.2,0.4-0.3,0.8-0.3h5.6c0.5,0,1,0.4,1,1s-0.4,1-1,1H7.7v34.4h19.4c1.1,0,1.9-0.9,1.9-1.9V34.1
	c0-0.5,0.4-1,1-1s1,0.4,1,1v21.1c0,1.1,0.9,1.9,1.9,1.9h19.4V22.6h-4c-0.5,0-1-0.4-1-1s0.4-1,1-1h4.9c0.2,0,0.5,0,0.8,0.3
	c0.2,0.2,0.3,0.4,0.3,0.8v1.9h0.8c2.7,0,4.8,2.2,4.8,4.9h-0.2L59.8,28.6z M57.9,28.6c0-1.6-1.3-2.8-2.8-2.8h-0.8v32.5
	c0,0.2-0.1,0.5-0.3,0.8s-0.4,0.3-0.8,0.3H32.8c-1.1,0-2.1-0.4-2.9-1.3c-0.8,0.9-1.8,1.3-2.9,1.3H6.8c-0.5,0-1-0.4-1-1V25.9H5
	c-1.6,0-2.8,1.3-2.8,2.8v31.5C2.2,61.8,3.5,63,5,63h50.1c1.6,0,2.8-1.3,2.8-2.8L57.9,28.6l-0.1,0.1L57.9,28.6z M47.5,45.4H36.1
	c-0.5,0-1,0.4-1,1s0.4,1,1,1h11.4c0.5,0,1-0.4,1-1S48.1,45.4,47.5,45.4z M23.8,36H12.4c-0.5,0-1,0.4-1,1s0.4,1,1,1h11.4
	c0.5,0,1-0.4,1-1S24.4,36,23.8,36z M23.8,40.7H12.4c-0.5,0-1,0.4-1,1s0.4,1,1,1h11.4c0.5,0,1-0.4,1-1S24.4,40.7,23.8,40.7z
	 M47.5,31.3H36.1c-0.5,0-1,0.4-1,1c0,0.6,0.4,1,1,1h11.4c0.5,0,1-0.4,1-1S48.1,31.3,47.5,31.3z M23.8,31.3H12.4c-0.5,0-1,0.4-1,1
	c0,0.6,0.4,1,1,1h11.4c0.5,0,1-0.4,1-1S24.4,31.3,23.8,31.3z M12.4,50.1c-0.5,0-1,0.4-1,1s0.4,1,1,1h6.5c0.5,0,1-0.4,1-1s-0.4-1-1-1
	H12.4z M47.5,26.5h-5.9c-0.5,0-1,0.4-1,1s0.4,1,1,1h5.9c0.5,0,1-0.4,1-1S48.1,26.5,47.5,26.5z M24.8,46.4L24.8,46.4
	c0-0.3,0-0.5-0.3-0.8c-0.2-0.2-0.4-0.3-0.8-0.3H12.3c-0.5,0-1,0.4-1,1s0.4,1,1,1h11.4C24.2,47.3,24.7,46.9,24.8,46.4L24.8,46.4
	L24.8,46.4z"/>
</svg>
