<?xml version="1.0" encoding="utf-8"?>
<!-- Generator: Adobe Illustrator 27.0.0, SVG Export Plug-In . SVG Version: 6.00 Build 0)  -->
<svg version="1.1" id="Layer_1" xmlns="http://www.w3.org/2000/svg" xmlns:xlink="http://www.w3.org/1999/xlink" x="0px" y="0px"
	 viewBox="0 0 60 65" style="enable-background:new 0 0 60 65;" xml:space="preserve">
<style type="text/css">
	.st0{fill:#0A5D00;}
	.st1{fill:#0C0F0B;}
</style>
<path class="st0" d="M55.4,22.4h-0.8v-2c0-0.2,0-0.6-0.3-0.8s-0.4-0.3-0.8-0.3h-9.1c-0.9,1.6-2.4,2.7-4.3,2.8l-8,8.8v-8.8H20.2
	c-1.9,0-3.7-1.1-4.5-2.8H6.8c-0.3,0-0.5,0-0.8,0.2s-0.3,0.4-0.3,0.8v2H4.9c-2.6,0-4.8,2.2-4.8,5v32.6c0,1.3,0.5,2.6,1.4,3.6
	c1,0.9,2.2,1.5,3.4,1.5h50.2c2.7,0,4.8-2.2,4.8-5V27.3c0-2.8-2.2-5-4.8-5h0.2L55.4,22.4z M42,25.3h5.9c0.5,0,1,0.4,1,1s-0.4,1-1,1
	H42c-0.5,0-1-0.4-1-1S41.4,25.3,42,25.3z M36.5,30.2h11.4c0.5,0,1,0.4,1,1s-0.4,1-1,1H36.5c-0.5,0-1-0.4-1-1S35.9,30.2,36.5,30.2z
	 M36.5,35.1h11.4c0.5,0,1,0.4,1,1s-0.4,1-1,1H36.5c-0.5,0-1-0.4-1-1S35.9,35.1,36.5,35.1z M36.5,39.9h11.4c0.5,0,1,0.4,1,1
	s-0.4,1-1,1H36.5c-0.5,0-1-0.4-1-1S35.9,39.9,36.5,39.9z M36.5,44.8h11.4c0.5,0,1,0.4,1,1s-0.4,1-1,1H36.5c-0.5,0-1-0.4-1-1
	S35.9,44.8,36.5,44.8z M48.9,50.6c0,0.6-0.4,1-1,1h-6.6c-0.5,0-1-0.4-1-1s0.4-1,1-1h6.6C48.4,49.6,48.9,50,48.9,50.6z M12.7,25.4
	h11.4c0.2,0,0.5,0,0.8,0.3c0.2,0.2,0.3,0.4,0.3,0.8s0,0.6-0.3,0.8c-0.2,0.2-0.4,0.3-0.8,0.3H12.7c-0.5,0-1-0.4-1-1s0.4-1,1-1
	C12.7,25.6,12.7,25.4,12.7,25.4z M12.7,30.2h11.4c0.5,0,1,0.4,1,1s-0.4,1-1,1H12.7c-0.5,0-1-0.4-1-1S12.1,30.2,12.7,30.2z
	 M12.7,35.1h11.4c0.5,0,1,0.4,1,1s-0.4,1-1,1H12.7c-0.5,0-1-0.4-1-1S12.1,35.1,12.7,35.1z M12.7,40h11.4c0.5,0,1,0.4,1,1s-0.4,1-1,1
	H12.7c-0.5,0-1-0.4-1-1S12.1,40,12.7,40z M12.7,44.8h11.4c0.2,0,0.5,0,0.8,0.3c0.2,0.2,0.3,0.4,0.3,0.8l0,0c0,0.6-0.4,1-1,1H12.8
	c-0.5,0-1-0.4-1-1S12.2,44.9,12.7,44.8L12.7,44.8L12.7,44.8z M12.7,49.6h6.6c0.5,0,1,0.4,1,1s-0.4,1-1,1h-6.6c-0.5,0-1-0.4-1-1
	S12.1,49.6,12.7,49.6z M58.3,60c0,1.7-1.3,2.9-2.8,2.9H5.2c-1.6,0-2.8-1.3-2.8-2.9V27.4c0-1.7,1.3-2.9,2.9-2.9h0.8v33.6
	c0,0.6,0.4,1,1,1h20.5c1.1,0,2.2-0.4,2.9-1.3c0.8,0.9,1.8,1.3,2.9,1.3h20.5c0.2,0,0.5,0,0.8-0.2s0.3-0.4,0.3-0.8V24.5h0.8
	c1.6,0,2.8,1.3,2.8,2.9V60h-0.1H58.3z"/>
<path class="st1" d="M30.3,10.9c-1.1-1.1-1.7-2.5-1.9-4h3.9c-0.2,1.6-0.9,3-1.9,4H30.3z M17.5,16.9V3.1c0-1.8,1.4-3.1,3-3.1h19.7
	c0.9,0,1.6,0.3,2.2,0.9s0.9,1.3,0.9,2.2v13.8c0,1.7-1.3,3.1-3,3.1H40c-0.3,0-0.5,0.1-0.8,0.3l0,0l-4.8,5.4v-4.6c0-0.6-0.4-1-1-1
	H20.5C18.8,20.1,17.5,18.6,17.5,16.9l0.1,0.1L17.5,16.9z M23.5,5.8c0,0.2,0,0.6,0.3,0.7c0.2,0.2,0.4,0.3,0.8,0.3h1.8
	c0.2,2,1.1,3.9,2.4,5.4c-1.1,0.6-2.3,0.9-3.4,0.9s-1,0.4-1,1s0.4,1,1,1c1.8,0,3.6-0.6,5.1-1.6c1.5,1.1,3.2,1.7,5.1,1.7s1-0.4,1-1
	s-0.4-1-1-1c-1.2,0-2.4-0.3-3.4-0.9c1.3-1.5,2.2-3.4,2.4-5.4h1.8c0.5,0,1-0.4,1-1s-0.4-1-1-1H24.8c-0.5,0-1,0.4-1,1h-0.1L23.5,5.8z"
	/>
</svg>
