<?xml version="1.0" encoding="UTF-8"?>
<svg id="Layer_1" data-name="Layer 1" xmlns="http://www.w3.org/2000/svg" version="1.1" xmlns:xlink="http://www.w3.org/1999/xlink" viewBox="0 0 46 38">
  <defs>
    <style>
      .cls-1 {
        fill: url(#linear-gradient);
        stroke-width: 0px;
      }
    </style>
    <linearGradient id="linear-gradient" x1="23" y1="38" x2="23" y2="0" gradientUnits="userSpaceOnUse">
      <stop offset="0" stop-color="#6766fe"/>
      <stop offset="1" stop-color="#bf8ce9"/>
    </linearGradient>
  </defs>
  <path class="cls-1" d="M11.1,38c-2.8,0-5.4-1-7.7-3-2.3-2-3.4-5.2-3.4-9.6s.6-7.2,1.9-10.4c1.3-3.2,3.1-6.1,5.2-8.6C9.4,3.7,11.9,1.6,14.6,0l4.2,2.2c-.9.8-1.9,2-3.1,3.6-1.2,1.5-2.3,3.4-3.4,5.5-1,2.1-1.5,4.4-1.7,6.9,2.9.1,5.3,1.1,7.2,2.8,2,1.7,3,4,3,6.7s-1,5.7-2.9,7.5c-1.9,1.8-4.2,2.8-6.9,2.8ZM36.1,38c-2.8,0-5.3-1-7.6-3-2.2-2-3.4-5.2-3.4-9.6s.6-7.2,1.9-10.4c1.3-3.2,3.1-6.1,5.2-8.6C34.5,3.7,36.9,1.6,39.6,0l4.2,2.2c-.9.8-1.9,2-3.1,3.6-1.2,1.5-2.3,3.4-3.3,5.5-.9,2.1-1.5,4.4-1.6,6.9,2.8.1,5.2,1.1,7.1,2.8,2,1.7,3.1,4,3.1,6.7s-1,5.7-3,7.5c-2,1.8-4.3,2.8-6.9,2.8Z"/>
</svg>