<?xml version="1.0" encoding="UTF-8"?>
<svg id="Layer_1" data-name="Layer 1" xmlns="http://www.w3.org/2000/svg" version="1.1" xmlns:xlink="http://www.w3.org/1999/xlink" viewBox="0 0 48 41">
  <defs>
    <style>
      .cls-1 {
        fill: url(#linear-gradient);
        stroke-width: 0px;
      }
    </style>
    <linearGradient id="linear-gradient" x1="24" y1="40.1" x2="24" y2=".9" gradientUnits="userSpaceOnUse">
      <stop offset="0" stop-color="#6766fe"/>
      <stop offset="1" stop-color="#bf8ce9"/>
    </linearGradient>
  </defs>
  <path class="cls-1" d="M36.8,40.1c-2.9,0-5.6-1.1-8-3.2h0c-2.4-2.2-3.6-5.6-3.6-10.1s.6-7.3,1.9-10.5c1.3-3.3,3.1-6.2,5.3-8.7,2.2-2.6,4.7-4.7,7.3-6.3l.5-.3,5.9,3-1.1.9c-.8.7-1.8,1.8-2.9,3.3-1.1,1.5-2.2,3.2-3.1,5.2-.7,1.7-1.2,3.5-1.4,5.4,2.5.3,4.7,1.3,6.6,2.9,2.2,1.9,3.3,4.3,3.3,7.3s-1.1,6.1-3.2,8.1c-2.1,2-4.6,2.9-7.4,2.9ZM40.2,2c-2.6,1.6-5,3.7-7.1,6.2-2.1,2.4-3.8,5.3-5.1,8.4-1.2,3.1-1.8,6.6-1.8,10.2s1.1,7.4,3.3,9.3h0c2.2,2,4.7,3,7.4,3s4.8-.9,6.8-2.7c1.9-1.8,2.9-4.3,2.9-7.4s-1-4.9-3-6.6c-1.8-1.6-4-2.5-6.5-2.7h-.5s0-.5,0-.5c.2-2.2.7-4.3,1.5-6.2.9-2.1,2-3.9,3.2-5.4,1.2-1.5,2.2-2.7,3.1-3.5l-4.1-2.1ZM12.4,40.1c-3,0-5.7-1.1-8.1-3.2-2.4-2.2-3.7-5.5-3.7-10.1s.6-7.3,1.9-10.5h0c1.3-3.3,3.1-6.2,5.3-8.7,2.2-2.6,4.8-4.7,7.5-6.3l.5-.3,5.9,3-1.1.9c-.8.7-1.8,1.8-2.9,3.3-1.1,1.5-2.2,3.2-3.2,5.2-.8,1.7-1.3,3.5-1.5,5.4,2.6.3,4.8,1.3,6.6,2.9,2.1,1.9,3.2,4.3,3.2,7.3s-1.1,6.1-3.1,8.1c-2.1,2-4.5,3-7.4,3ZM15.8,2c-2.6,1.6-5.1,3.7-7.2,6.2-2.1,2.4-3.8,5.3-5.1,8.4h0c-1.2,3.1-1.8,6.6-1.8,10.2s1.1,7.4,3.3,9.3c2.2,2,4.7,3,7.5,3s4.8-.9,6.7-2.7c1.9-1.8,2.8-4.3,2.8-7.4s-1-4.9-2.9-6.6c-1.8-1.6-4-2.5-6.6-2.7h-.5s0-.5,0-.5c.2-2.2.7-4.3,1.6-6.2,1-2.1,2.1-3.9,3.3-5.4,1.2-1.5,2.2-2.7,3.1-3.5l-4.1-2.1Z"/>
</svg>